<svg xmlns="http://www.w3.org/2000/svg" viewBox="0 0 96 96" width="96" height="96" role="img" aria-label="Огород">
  <rect x="3" y="3" width="90" height="90" rx="22" fill="#F4EFDD"/>
  <!-- грядки (рядки земли) -->
  <g fill="#A06A41">
    <rect x="13" y="60" width="70" height="8" rx="4"/>
    <rect x="13" y="71" width="70" height="8" rx="4"/>
    <rect x="13" y="82" width="70" height="6" rx="3"/>
  </g>
  <!-- всходы -->
  <g>
    <g transform="translate(32 60)">
      <rect x="-1.5" y="-26" width="3" height="26" rx="1.5" fill="#4E9A3F"/>
      <ellipse cx="-7" cy="-18" rx="7.5" ry="4.5" fill="#6FBF59" transform="rotate(-28 -7 -18)"/>
      <ellipse cx="7" cy="-21" rx="7.5" ry="4.5" fill="#6FBF59" transform="rotate(28 7 -21)"/>
      <circle cx="0" cy="-27" r="3.2" fill="#8FD97B"/>
    </g>
    <g transform="translate(48 60)">
      <rect x="-1.5" y="-32" width="3" height="32" rx="1.5" fill="#4E9A3F"/>
      <ellipse cx="-8" cy="-24" rx="8.5" ry="5" fill="#6FBF59" transform="rotate(-28 -8 -24)"/>
      <ellipse cx="8" cy="-27" rx="8.5" ry="5" fill="#6FBF59" transform="rotate(28 8 -27)"/>
      <circle cx="0" cy="-34" r="3.6" fill="#8FD97B"/>
    </g>
    <g transform="translate(64 60)">
      <rect x="-1.5" y="-26" width="3" height="26" rx="1.5" fill="#4E9A3F"/>
      <ellipse cx="-7" cy="-18" rx="7.5" ry="4.5" fill="#6FBF59" transform="rotate(-28 -7 -18)"/>
      <ellipse cx="7" cy="-21" rx="7.5" ry="4.5" fill="#6FBF59" transform="rotate(28 7 -21)"/>
      <circle cx="0" cy="-27" r="3.2" fill="#8FD97B"/>
    </g>
  </g>
</svg>
